<?xml version="1.0" encoding="utf-8"?>
<!-- Generator: Adobe Illustrator 23.0.1, SVG Export Plug-In . SVG Version: 6.00 Build 0)  -->
<svg version="1.1"
	 id="svg2" inkscape:export-filename="/tmp/icon.png" inkscape:export-xdpi="90.235413" inkscape:export-ydpi="90.235413" inkscape:version="0.48.3.1 r9886" sodipodi:docname="infinite.svg" xmlns:cc="http://creativecommons.org/ns#" xmlns:dc="http://purl.org/dc/elements/1.1/" xmlns:inkscape="http://www.inkscape.org/namespaces/inkscape" xmlns:rdf="http://www.w3.org/1999/02/22-rdf-syntax-ns#" xmlns:sodipodi="http://sodipodi.sourceforge.net/DTD/sodipodi-0.dtd" xmlns:svg="http://www.w3.org/2000/svg"
	 xmlns="http://www.w3.org/2000/svg" xmlns:xlink="http://www.w3.org/1999/xlink" x="0px" y="0px" viewBox="0 0 16 16"
	 style="enable-background:new 0 0 16 16;" xml:space="preserve">
<style type="text/css">
	.st0{display:none;}
	.st1{display:inline;fill:url(#SVGID_1_);}
	.st2{fill:#4D1A9A;}
	.st3{enable-background:new    ;}
	.st4{fill:none;stroke:#FFFFFF;stroke-width:2;}
	.st5{font-family:'CourierNewPSMT';}
	.st6{font-size:12.4774px;}
</style>
<title  id="title2993">Humbug Hat</title>
<sodipodi:namedview  bordercolor="#666666" borderopacity="1.0" fit-margin-bottom="0" fit-margin-left="0" fit-margin-right="0" fit-margin-top="0" id="base" inkscape:current-layer="layer1" inkscape:cx="-0.94670536" inkscape:cy="2.2156128" inkscape:document-units="px" inkscape:pageopacity="0.0" inkscape:pageshadow="2" inkscape:window-height="1598" inkscape:window-maximized="0" inkscape:window-width="1278" inkscape:window-x="1200" inkscape:window-y="0" inkscape:zoom="16" pagecolor="#ffffff" showgrid="false">
	</sodipodi:namedview>
<g transform="translate(8 8) scale(0.023769201057729446) translate(-386.56 -386.56)" class="st0">
	
		<linearGradient id="SVGID_1_" gradientUnits="userSpaceOnUse" x1="-11553.7754" y1="16071.3838" x2="-11553.7754" y2="16070.3838" gradientTransform="matrix(14.3547 0 0 -16 166237.5156 257192.1406)">
		<stop  offset="0" style="stop-color:#50ADFF"/>
		<stop  offset="1" style="stop-color:#7877FC"/>
	</linearGradient>
	<path class="st1" d="M688.5,150.7c0,33.9-15.2,64-38.4,82.3L424.8,434.2c-4.2,3.6-9.6-2.2-6.6-7l82.6-165.5
		c2.3-4.6-0.7-10.3-5.4-10.3H174.9c-49.6,0-90.3-45.3-90.3-100.7S125.2,50,174.9,50h423.4C647.9,50,688.5,95.3,688.5,150.7z
		 M174.9,723.1h423.4c49.6,0,90.3-45.3,90.3-100.7c0-55.4-40.6-100.7-90.3-100.7H277.7c-4.8,0-7.8-5.7-5.4-10.3L354.9,346
		c3-4.8-2.4-10.6-6.6-7L123,540.1c-23.2,18.3-38.4,48.4-38.4,82.3C84.6,677.8,125.2,723.1,174.9,723.1z"/>
</g>
<g>
	<title>Plan de travail 1</title>
	<path class="st2" d="M6.1,0c0,0,0.1,0.1,0.1,0.1c0.1,0.1,0.2,0.2,0.4,0.3c0.2,0.1,0.3,0.3,0.5,0.4C7.1,1,7.1,1.1,7.2,1.1
		c0,0.1,0,0.1,0,0.1c0,0,0,0,0,0.1c0,0.1,0,0.2,0.1,0.3c0,0.1,0.1,0.1,0.1,0.1c0.1,0,0.2,0,0.2,0c0.1,0,0.1-0.1,0.1-0.2
		c0-0.1,0-0.1-0.1-0.2c0-0.1-0.1-0.2-0.1-0.3c0-0.1,0-0.1,0-0.2c0.1-0.1,0.2-0.3,0.3-0.4S7.9,0.2,8,0C8,0,8,0,8.1,0
		c0,0.1,0.1,0.1,0.1,0.2c0.1,0.1,0.1,0.2,0.2,0.3c0,0.1,0.1,0.2,0.2,0.2c0.1,0.1,0.1,0.2,0,0.3C8.5,1.2,8.4,1.3,8.4,1.4
		c0,0.1,0,0.1,0,0.2c0,0,0,0.1,0.1,0.1c0.1,0,0.2,0,0.3,0c0,0,0,0,0,0c0-0.1,0-0.1,0-0.2c0-0.1,0-0.3,0.1-0.4C8.9,1,9,0.9,9,0.8
		c0.1-0.1,0.2-0.1,0.3-0.2c0.1-0.1,0.1-0.1,0.2-0.2c0,0,0,0,0,0c0.1,0,0.1-0.1,0.2-0.1s0.1-0.1,0.2-0.1c0,0,0,0,0,0c0,0,0,0,0,0.1
		c0,0.1-0.1,0.3-0.1,0.4C9.7,0.8,9.6,1,9.5,1.3c0,0.1-0.1,0.3-0.1,0.4S9.3,2,9.3,2.2c0,0.1,0,0.1-0.1,0.2c0,0,0,0.1,0,0.1
		c0,0,0,0,0,0.1c0.1,0.1,0.3,0.1,0.4,0.2c0.1,0,0.3,0.1,0.4,0.1c0.1,0,0.2,0.1,0.3,0.1c0,0,0.1,0,0.1,0.1c0.1,0.1,0.3,0.1,0.4,0.2
		c0.1,0.1,0.3,0.1,0.4,0.1c0,0,0,0,0,0c0.1,0.1,0.2,0.1,0.3,0.2c0.1,0,0.2,0.1,0.3,0.1c0.1,0,0.2,0.1,0.2,0.1s0.2,0.1,0.2,0.1
		c0.1,0,0.2,0.1,0.3,0.1c0.1,0,0.1,0.1,0.2,0.1c0,0,0.1,0,0.1,0.1c0.1,0,0.1,0,0.2,0.1c0.1,0,0.2,0.1,0.3,0.1c0.1,0,0.1,0.1,0.1,0.2
		c0,0,0,0.1,0,0.1c0,0,0,0.1,0,0.1c0,0,0,0,0,0c0,0.2,0,0.3,0,0.5c0,0.1,0,0.2,0,0.4c0,0.3,0,0.6,0,0.9c0,0.2,0,0.3-0.1,0.5
		c0,0.1,0,0.2,0,0.3c0,0.1,0,0.2-0.1,0.2c0,0,0,0.1,0,0.1c0,0.1,0,0.3-0.1,0.4c0,0.1-0.1,0.3-0.1,0.4c0,0.1,0,0.1-0.1,0.2
		c0,0.1,0,0.1-0.1,0.2c0,0.1,0,0.1-0.1,0.2c0,0,0,0.1,0,0.1c0,0.1,0,0.2-0.1,0.2c0,0,0,0.1,0,0.1C13,9.4,13,9.5,12.9,9.7
		c0,0.1-0.1,0.2-0.1,0.2c0,0.1-0.1,0.2-0.1,0.3c0,0-0.1,0.1-0.1,0.1c0,0,0,0.1-0.1,0.1c0,0,0,0,0,0.1c-0.1,0.1-0.1,0.1-0.1,0.2
		c0,0.1-0.1,0.1-0.1,0.2c-0.1,0.1-0.1,0.2-0.2,0.3c0,0-0.1,0.1-0.1,0.1c-0.1,0.1-0.1,0.2-0.2,0.3c0,0.1-0.1,0.1-0.2,0.2
		c-0.1,0.1-0.1,0.2-0.2,0.3c0,0,0,0,0,0c0,0.1-0.1,0.1-0.1,0.2c0,0-0.1,0.1-0.1,0.1c-0.1,0.1-0.2,0.2-0.3,0.3
		c-0.1,0.1-0.1,0.1-0.1,0.2c0,0,0,0,0,0.1c-0.1,0.1-0.3,0.3-0.4,0.4c-0.1,0.1-0.2,0.2-0.3,0.3c0,0.1-0.1,0.1-0.2,0.1
		C10,14,9.9,14.1,9.8,14.2c-0.1,0.1-0.2,0.1-0.3,0.2c0,0-0.1,0.1-0.1,0.1c-0.1,0.1-0.3,0.2-0.4,0.4c-0.2,0.1-0.4,0.3-0.6,0.4
		c-0.1,0.1-0.3,0.2-0.4,0.3c0,0-0.1,0-0.1,0c-0.1-0.1-0.2-0.1-0.3-0.2c-0.1-0.1-0.2-0.1-0.2-0.2c-0.1-0.1-0.1-0.1-0.2-0.2
		C7.1,15,7,14.9,6.9,14.9c0,0,0,0-0.1-0.1c0,0-0.1-0.1-0.1-0.1c-0.2-0.1-0.3-0.3-0.5-0.4c-0.2-0.2-0.4-0.4-0.7-0.6
		c-0.2-0.2-0.3-0.3-0.5-0.5C5.1,13.1,5,13,4.9,12.9c0-0.1-0.1-0.1-0.1-0.2c0,0,0,0,0-0.1c-0.1-0.1-0.2-0.2-0.3-0.4
		c0-0.1-0.1-0.1-0.1-0.2c0-0.1-0.1-0.1-0.1-0.2c-0.1-0.1-0.1-0.1-0.1-0.2c0,0,0,0,0,0c-0.1-0.1-0.1-0.2-0.2-0.3c0,0,0-0.1,0-0.1
		c-0.1-0.1-0.1-0.2-0.2-0.3c0-0.1-0.1-0.1-0.1-0.2c0,0-0.1-0.1-0.1-0.1c0-0.1-0.1-0.1-0.1-0.2C3.3,10.2,3.2,10,3.1,9.8
		C3.1,9.8,3,9.7,3,9.6c0-0.1,0-0.1,0-0.2c0,0,0-0.1-0.1-0.1c0,0,0-0.1,0-0.1c0-0.1,0-0.2,0-0.3c0-0.1-0.1-0.2-0.1-0.3
		c0-0.1,0-0.1-0.1-0.2c0-0.1,0-0.1,0-0.2c0-0.1,0-0.2-0.1-0.3c0-0.1,0-0.2,0-0.3c0,0,0-0.1,0-0.1c0,0,0-0.1,0-0.1c0-0.1,0-0.2,0-0.2
		c0,0,0-0.1,0-0.2c0-0.2,0-0.4-0.1-0.5c0-0.3,0-0.5,0-0.8c0-0.3,0-0.5,0-0.8c0-0.2,0-0.4,0-0.5c0,0,0,0,0-0.1c0,0,0,0,0.1,0
		c0.1,0,0.2-0.1,0.3-0.1C2.9,4,3,4,3.2,3.9c0,0,0,0,0,0c0.1-0.1,0.2-0.1,0.3-0.1c0.1,0,0.2-0.1,0.3-0.1c0.1,0,0.1-0.1,0.2-0.1
		c0,0,0,0,0.1,0c0.1,0,0.2-0.1,0.4-0.2c0.1,0,0.1-0.1,0.2-0.1c0,0,0,0,0.1,0c0,0,0.1,0,0.2-0.1c0.1,0,0.1,0,0.2-0.1
		c0,0,0.1,0,0.1-0.1c0.1,0,0.2-0.1,0.3-0.1C5.5,3,5.6,3,5.6,3c0.1,0,0.2-0.1,0.3-0.1c0.1,0,0.1,0,0.2-0.1c0.1,0,0.3-0.1,0.4-0.1
		c0,0,0.1,0,0.2-0.1c0.1,0,0.1,0,0.2-0.1c0.1,0,0.1-0.1,0-0.2C6.8,2.2,6.8,2,6.7,1.9c0-0.1-0.1-0.2-0.1-0.3c0-0.1,0-0.1-0.1-0.2
		c0-0.1-0.1-0.2-0.1-0.4c0,0,0,0,0,0c0-0.1,0-0.2,0-0.3c0,0,0-0.1,0-0.1c0-0.1-0.1-0.2-0.1-0.3C6.2,0.3,6.2,0.2,6.1,0L6.1,0L6.1,0z
		 M7.7,9.1L7.7,9.1c0,0-0.1-0.1-0.1-0.2c0-0.1,0-0.1,0-0.2c0,0,0,0,0,0c0,0,0,0,0,0c0,0-0.1,0.1-0.1,0.1C7.3,8.9,7.3,9.1,7.2,9.2
		c0,0.1-0.1,0.2-0.1,0.3c0,0,0,0.1,0,0.1c0,0,0,0-0.1,0c0,0,0-0.1,0-0.1c0,0,0,0,0-0.1c0,0,0,0,0,0c0,0.1-0.1,0.3-0.1,0.4
		c0,0.1-0.1,0.3-0.1,0.4c0,0.3,0,0.5,0,0.8c0,0.1,0,0.2,0.1,0.2c0,0.1,0.1,0.1,0.1,0.2c0,0,0,0,0,0c0,0,0,0,0,0c0,0,0-0.1,0-0.1
		c0-0.2,0-0.4,0.1-0.5c0-0.2,0.1-0.4,0.2-0.6c0.1-0.1,0.1-0.2,0.2-0.3c0,0,0,0,0,0c0,0,0,0,0,0c0,0.1,0,0.2,0,0.3c0,0.2,0,0.3,0,0.5
		c0,0.1,0,0.1,0,0.2c0,0.2,0.1,0.4,0.1,0.6c0.1,0.2,0.2,0.3,0.3,0.5c0,0,0.1,0.1,0.1,0.2c0,0,0,0.1,0.1,0.1c0,0,0.1,0,0.1,0
		c0-0.1,0-0.1,0-0.2c0,0,0-0.1,0-0.1c0-0.2,0-0.4,0-0.6c0-0.1,0-0.1,0.1-0.2c0,0,0,0,0,0c0,0,0,0,0,0c0,0.1,0,0.1,0.1,0.2
		c0,0.1,0.1,0.2,0.1,0.3c0,0.1,0.1,0.2,0.1,0.3c0,0.1,0.1,0.2,0.2,0.3c0.1,0.1,0.2,0.2,0.3,0.4c0,0,0.1,0.1,0.1,0.1
		C9,12.9,9.1,12.9,9.2,13s0.2,0.1,0.2,0.2c0,0,0.1,0.1,0.1,0.1c0,0,0.1,0,0.1,0c0,0,0,0,0-0.1c0,0-0.1-0.1-0.1-0.1c0,0,0,0,0,0
		c0-0.1-0.1-0.1-0.1-0.2c-0.1-0.1-0.1-0.1-0.2-0.2C9.1,12.6,9,12.5,9,12.4c0-0.1-0.1-0.1-0.1-0.2c0,0,0,0,0,0
		c-0.1-0.2-0.2-0.3-0.2-0.5c0-0.1-0.1-0.3-0.1-0.4c0-0.3,0-0.7,0-1c0-0.1,0-0.2,0.1-0.4c0,0,0,0,0.1-0.1c0,0,0,0,0,0.1
		c0,0,0,0.1,0,0.1c0,0.1,0,0.2,0,0.3c0,0.2,0.1,0.3,0.1,0.5c0,0,0,0.1,0,0.1c0,0.1,0,0.1,0.1,0.2c0.1,0.2,0.2,0.3,0.4,0.4
		c0,0,0,0,0,0c0,0,0,0,0,0c0,0,0,0,0,0c0,0,0,0,0,0c0-0.1-0.1-0.1-0.1-0.2c-0.1-0.2-0.1-0.3-0.2-0.5C9,10.6,9,10.4,9,10.3
		c0-0.4,0-0.8,0.1-1.2c0-0.1,0-0.1,0.1-0.2c0-0.1,0.1-0.2,0.1-0.3c0,0,0-0.1,0.1-0.1l0,0c0,0,0,0.1,0,0.1c0,0.1,0,0.3,0,0.4
		c0,0.1,0,0.2,0,0.2c0,0.2,0.1,0.3,0.2,0.5c0.1,0.1,0.2,0.2,0.3,0.3c0.1,0.1,0.2,0.2,0.3,0.2c0.1,0,0.2,0,0.3,0.1c0,0,0,0,0,0
		c0,0,0,0,0,0c0,0,0,0,0,0c0,0,0,0,0,0c0,0,0,0,0,0c0,0,0.1,0,0.1,0c0.1,0,0.2,0,0.3,0c0.1,0,0.2,0,0.2,0c0,0,0.1,0,0.1,0
		c0,0,0.1,0,0.1,0.1c0,0,0,0-0.1,0c-0.1,0-0.1,0-0.2,0.1c0,0,0,0,0,0.1c0,0,0,0,0,0c0.1,0,0.1,0,0.2,0c0,0,0,0,0.1,0
		c0,0,0-0.1,0-0.1c0,0,0-0.1,0.1-0.1c0,0,0.1-0.1,0.1-0.1c0-0.1,0.1-0.1,0.1-0.2c0.1-0.1,0.1-0.2,0.2-0.3c0.1-0.3,0.2-0.5,0.3-0.8
		c0.1-0.2,0.1-0.4,0.2-0.6c0-0.1,0-0.2,0.1-0.2c0-0.1,0.1-0.2,0.1-0.3c0-0.2,0.1-0.3,0.1-0.5c0.1-0.3,0.1-0.6,0.2-0.9
		c0-0.2,0.1-0.4,0.1-0.7c0-0.4,0-0.9,0-1.3c0,0,0-0.1-0.1-0.1c0,0-0.1,0-0.1,0c0,0-0.1,0-0.1,0c-0.1,0-0.2-0.1-0.3-0.1
		c-0.2-0.1-0.4-0.2-0.6-0.2c-0.1,0-0.2-0.1-0.3-0.1c-0.1,0-0.3-0.1-0.4-0.1C11,4.1,10.9,4,10.8,4c-0.1,0-0.2-0.1-0.3-0.1
		c-0.1,0-0.2-0.1-0.3-0.1c0,0-0.1,0-0.1,0c-0.1,0-0.2-0.1-0.3-0.1c0,0-0.1,0-0.1-0.1C9.5,3.5,9.4,3.4,9.3,3.4C9.2,3.4,9.1,3.3,9,3.3
		C8.9,3.2,8.7,3.2,8.6,3.1C8.4,3.1,8.2,3,8.1,2.9c-0.1,0-0.1,0-0.2,0C7.8,3,7.8,3,7.7,3c-0.1,0-0.2,0.1-0.3,0.1
		c-0.1,0-0.1,0-0.2,0.1c-0.1,0-0.2,0-0.3,0.1c-0.1,0-0.1,0.1-0.2,0.1c-0.1,0-0.2,0.1-0.3,0.1c-0.1,0-0.2,0.1-0.4,0.1
		c-0.1,0-0.2,0.1-0.4,0.1c-0.1,0-0.2,0.1-0.4,0.1C5.2,4,5.1,4,4.9,4.1c-0.1,0-0.2,0.1-0.3,0.1c-0.1,0-0.2,0-0.3,0.1c0,0,0,0,0,0
		c0,0-0.1,0-0.1,0.1C4,4.4,3.8,4.5,3.7,4.6C3.5,4.6,3.4,4.7,3.2,4.8c-0.1,0-0.1,0-0.1,0.1c0,0,0,0.1,0,0.1c0,0.2,0,0.4,0,0.6
		c0,0.3,0,0.5,0.1,0.8c0,0.2,0,0.4,0.1,0.6c0,0.2,0.1,0.4,0.1,0.7c0,0.2,0.1,0.4,0.1,0.5c0,0.2,0.1,0.3,0.1,0.5c0,0.1,0,0.1,0.1,0.2
		c0,0.1,0.1,0.2,0.1,0.3c0,0.1,0.1,0.3,0.1,0.4c0,0,0,0,0,0C3.9,9.7,4,9.8,4.1,10c0.1,0.1,0.1,0.3,0.2,0.4c0,0,0,0,0,0
		c0,0,0,0,0-0.1c0-0.1,0-0.2,0-0.2c0-0.2,0.1-0.5,0.1-0.7c0,0,0-0.1,0-0.1c0-0.1,0-0.1,0.1-0.2C4.6,9,4.7,8.9,4.8,8.8
		c0-0.1,0.1-0.2,0.1-0.2c0-0.1,0-0.1,0.1-0.2C5,8.4,5,8.3,5.1,8.3c0,0,0,0,0-0.1c0,0-0.1,0-0.1,0C4.9,8.3,4.8,8.4,4.7,8.5
		c0,0-0.1,0.1-0.1,0.1C4.6,8.7,4.5,8.8,4.4,8.9c0,0,0,0,0,0c0,0.1,0,0.1-0.1,0.2c0,0.1-0.1,0.1-0.1,0.2l0,0c0,0,0,0,0-0.1
		c0,0,0-0.1,0-0.1c0-0.2,0.1-0.4,0.1-0.7c0-0.1,0-0.2,0.1-0.4c0-0.1,0.1-0.3,0.2-0.4c0-0.1,0-0.1,0.1-0.2C4.7,7.3,4.8,7.2,4.9,7
		c0,0,0.1-0.1,0.1-0.1C5,6.8,5,6.8,5,6.7c0-0.1-0.1-0.3-0.1-0.4c0-0.3,0-0.5,0-0.8C5,5.4,5,5.4,5,5.3c0-0.1,0.1-0.3,0.2-0.4
		c0.1-0.1,0.1-0.2,0.2-0.3c0,0,0,0,0,0c0,0.1,0.1,0.2,0.1,0.3C5.6,5,5.6,5.1,5.7,5.2s0.1,0.2,0.2,0.3C6,5.6,6.1,5.7,6.3,5.7
		c0,0,0,0,0.1,0c0.1,0,0.1,0,0.1,0.1c0,0,0,0,0,0C6.5,5.9,6.6,6,6.7,6c0,0,0,0,0.1,0c0,0,0-0.1,0-0.1c-0.1,0-0.1,0-0.1-0.1
		c-0.1-0.1-0.1-0.2,0-0.2C6.8,5.6,7,5.5,7.1,5.5c0.1,0,0.1,0,0.2,0c0.1,0,0.2-0.1,0.4-0.1c0.2,0,0.4-0.1,0.6-0.1c0.2,0,0.4,0,0.5,0
		c0.2,0,0.5,0.1,0.7,0.2c0,0,0.1,0,0.1,0c0.1,0,0.2,0.1,0.3,0.1c0,0,0.1,0,0.1,0c0.1,0,0.3,0,0.4,0c0.1,0,0.3,0,0.4,0c0,0,0,0,0,0
		c0.1,0,0.1,0,0.2,0c0.1,0,0.2,0,0.3-0.1c0.1,0,0.1,0,0.2,0c0,0,0,0,0,0.1c0,0.1,0,0.1,0,0.2c0,0,0,0,0,0.1c0,0,0,0.1,0,0.1
		c0,0.2,0,0.4-0.2,0.6c-0.1,0.1-0.3,0.2-0.5,0.3c-0.1,0-0.1,0-0.1,0.1c0,0.1-0.1,0.3-0.2,0.4c-0.1,0.1-0.2,0.1-0.3,0.2
		c-0.1,0.1-0.3,0.1-0.4,0.1C9.8,7.6,9.6,7.6,9.4,7.7C9.3,7.7,9.2,7.8,9,7.8c0,0-0.1,0-0.1,0c-0.1,0-0.2,0.1-0.3,0.1
		C8.5,8,8.4,8,8.4,8.1C8.3,8.2,8.2,8.2,8.2,8.3C8.1,8.3,8,8.4,8,8.5c0,0,0,0.1-0.1,0.1c0,0,0,0,0,0c0,0.1,0,0.1-0.1,0.2
		C7.7,8.9,7.7,8.9,7.7,9.1C7.7,9,7.7,9.1,7.7,9.1L7.7,9.1z M5.8,6.4L5.8,6.4C5.8,6.5,5.8,6.5,5.8,6.4c0,0.1,0,0.1,0,0.2
		c0,0,0,0.1,0,0c0,0,0.1,0,0.1-0.1C6,6.4,6.1,6.3,6.3,6.3c0,0,0,0,0,0c0,0,0,0,0,0c0,0-0.1,0-0.1-0.1C6,6.1,5.8,6,5.7,5.9
		c0,0-0.1-0.1-0.1-0.1c-0.1,0-0.1,0-0.1,0.1c0,0.1,0,0.2,0,0.3c0,0.2,0,0.4,0.1,0.5c0,0,0,0,0.1,0.1c0,0,0,0,0.1-0.1
		c0-0.1,0.1-0.1,0.1-0.2C5.8,6.5,5.8,6.5,5.8,6.4z M8.1,5.8c0,0-0.1,0-0.1,0C7.9,5.9,7.8,6,7.7,6c-0.1,0-0.1,0.1-0.2,0.1
		c0,0-0.1,0-0.1,0.1c0,0,0,0,0,0.1c0,0,0,0,0,0c0,0,0.1,0,0.1,0c0,0,0,0,0,0c0.1,0,0.1,0,0.2,0c0,0,0,0,0.1,0c0.1,0,0.1,0,0.2-0.1
		c0,0,0,0,0.1,0C8.2,6,8.2,6,8.3,6c0,0,0.1,0,0.1,0c0.1,0,0.1,0,0.2,0c0,0,0,0,0.1,0c0,0,0,0-0.1-0.1c0,0,0,0-0.1,0c0,0,0,0-0.1,0
		C8.4,5.8,8.2,5.8,8.1,5.8z"/>
</g>
<g id="layer1" transform="translate(-112.53125,-681.00001)" inkscape:groupmode="layer" inkscape:label="Layer 1">
	<g id="g3825" transform="matrix(1.7498801,0,0,1.2477417,-86.966217,-171.8859)">
		<g class="st3">
			<text transform="matrix(0.8014 0 0 0.8014 116.3439 696.0935)" class="st4 st5 st6">∞</text>
		</g>
		<text transform="matrix(0.8014 0 0 0.8014 116.3439 696.0935)" class="st5 st6">∞</text>
	</g>
</g>
</svg>
